<?xml version="1.0" encoding="UTF-8"?>
<svg id="Layer_1" data-name="Layer 1" xmlns="http://www.w3.org/2000/svg" xmlns:xlink="http://www.w3.org/1999/xlink" viewBox="0 0 890.78 78.53">
  <defs>
    <style>
      .cls-1 {
        fill: #3e79ce;
      }

      .cls-2 {
        fill: url(#linear-gradient);
      }
    </style>
    <linearGradient id="linear-gradient" x1="0" y1="39.26" x2="81.72" y2="39.26" gradientUnits="userSpaceOnUse">
      <stop offset="0" stop-color="#0000e6"/>
      <stop offset="1" stop-color="#00d7e6"/>
    </linearGradient>
  </defs>
  <g>
    <path class="cls-1" d="m112.29,78.53V15.48h23.93c4.43,0,8.16.52,11.19,1.57,3.03,1.05,5.46,2.49,7.29,4.31,1.83,1.83,3.13,3.97,3.92,6.45.79,2.47,1.19,5.1,1.19,7.89s-.4,5.35-1.19,7.76c-.79,2.42-2.1,4.55-3.92,6.4-1.83,1.85-4.25,3.31-7.29,4.38-3.03,1.06-6.76,1.59-11.19,1.59h-15.95v22.68h-7.98Zm7.98-29.75h15.95c2.93,0,5.4-.35,7.42-1.06s3.62-1.64,4.83-2.82c1.21-1.18,2.08-2.57,2.61-4.16.53-1.6.8-3.27.8-5.02s-.27-3.51-.8-5.11c-.53-1.59-1.4-2.98-2.61-4.16-1.21-1.18-2.81-2.12-4.81-2.82s-4.48-1.06-7.44-1.06h-15.95v26.22Z"/>
    <path class="cls-1" d="m192.27,78.53V15.48h44.16v7.07h-36.18v20.91h32.21v7.07h-32.21v20.91h36.65v7.07h-44.63Z"/>
    <path class="cls-1" d="m269.36,78.53V15.48h44.16v7.07h-36.18v20.91h32.21v7.07h-32.21v20.91h36.65v7.07h-44.63Z"/>
    <path class="cls-1" d="m346.46,78.53V15.48h23.93c4.43,0,8.16.52,11.19,1.57,3.03,1.05,5.46,2.49,7.29,4.31s3.13,3.97,3.92,6.45,1.19,5.1,1.19,7.89-.4,5.35-1.19,7.76c-.79,2.42-2.1,4.55-3.92,6.4-1.83,1.85-4.25,3.31-7.29,4.38-3.03,1.06-6.76,1.59-11.19,1.59h-15.95v22.68h-7.98Zm7.98-29.75h15.95c2.93,0,5.4-.35,7.42-1.06,2.01-.7,3.62-1.64,4.83-2.82,1.21-1.18,2.08-2.57,2.61-4.16.53-1.6.8-3.27.8-5.02s-.27-3.51-.8-5.11c-.53-1.59-1.4-2.98-2.61-4.16-1.21-1.18-2.81-2.12-4.81-2.82s-4.48-1.06-7.44-1.06h-15.95v26.22Z"/>
    <path class="cls-1" d="m424.67,46.46c0-5.44.74-10.18,2.23-14.21s3.52-7.39,6.1-10.09c2.58-2.69,5.65-4.69,9.2-5.98,3.55-1.3,7.38-1.95,11.49-1.95,3.3,0,6.46.48,9.47,1.44,3.01.96,5.68,2.35,8.01,4.17,2.33,1.82,4.25,4.05,5.74,6.71,1.5,2.65,2.41,5.65,2.75,9.01h-7.74c-.33-2.26-1.04-4.28-2.12-6.07s-2.43-3.31-4.06-4.55c-1.62-1.24-3.47-2.18-5.54-2.81-2.07-.64-4.24-.95-6.52-.95-3.02,0-5.84.52-8.45,1.56-2.61,1.04-4.86,2.6-6.76,4.68-1.9,2.07-3.39,4.7-4.47,7.87-1.08,3.17-1.62,6.9-1.62,11.19s.54,8,1.62,11.15c1.08,3.14,2.57,5.75,4.47,7.83s4.16,3.62,6.76,4.63c2.61,1.01,5.43,1.52,8.45,1.52,2.28,0,4.45-.32,6.52-.95,2.07-.63,3.91-1.56,5.54-2.77,1.62-1.21,2.98-2.71,4.06-4.5s1.79-3.84,2.12-6.16h7.74c-.33,3.41-1.25,6.43-2.75,9.05-1.5,2.62-3.41,4.84-5.74,6.66-2.33,1.82-5,3.21-8.01,4.17-3.01.96-6.17,1.44-9.47,1.44-4.08,0-7.9-.65-11.47-1.95-3.57-1.3-6.64-3.28-9.22-5.94s-4.61-6.01-6.1-10.02-2.23-8.73-2.23-14.15Z"/>
    <path class="cls-1" d="m514.1,78.53V15.48h7.98v27.98h37.52V15.48h7.93v63.04h-7.93v-27.99h-37.52v27.99h-7.98Z"/>
    <path class="cls-1" d="m595.59,78.53l25.61-63.04h9.27l25.7,63.04h-8.92l-6.25-15.82h-30.57l-6.25,15.82h-8.58Zm17.68-22.85h24.88l-11.99-30.31h-.91l-11.99,30.31Z"/>
    <path class="cls-1" d="m684.24,78.53V15.48h24.66c4.23,0,7.8.47,10.72,1.4,2.92.93,5.26,2.21,7.03,3.84,1.77,1.62,3.03,3.52,3.8,5.69.76,2.17,1.14,4.49,1.14,6.96,0,3.65-.9,6.95-2.69,9.9-1.8,2.95-4.87,5.13-9.21,6.53v.91c2.13.52,3.9,1.27,5.3,2.24,1.41.98,2.58,2.1,3.51,3.36.94,1.27,1.7,2.7,2.29,4.29.59,1.6,1.13,3.3,1.62,5.11l2.98,12.81h-8.11l-2.92-12.38c-.29-1.58-.71-3.1-1.27-4.57s-1.39-2.76-2.48-3.88c-1.09-1.12-2.57-2.02-4.42-2.69s-4.19-1.01-7.01-1.01h-16.95v24.54h-7.98Zm7.98-31.61h16.69c2.76,0,5.08-.32,6.96-.97,1.88-.65,3.4-1.53,4.55-2.65,1.15-1.12,1.98-2.42,2.48-3.88.5-1.47.75-3.03.75-4.7s-.25-3.21-.75-4.72c-.5-1.51-1.33-2.8-2.48-3.88-1.15-1.08-2.67-1.94-4.55-2.59-1.88-.65-4.2-.97-6.96-.97h-16.69v24.36Z"/>
    <path class="cls-1" d="m761.68,22.56v-7.07h50.32v7.07h-21.17v55.97h-7.94V22.56h-21.21Z"/>
    <path class="cls-1" d="m840.15,58.94h7.98c-.03.31-.03.61,0,.89,0,1.52.23,2.95.69,4.27.57,1.58,1.56,2.96,2.95,4.15s3.23,2.11,5.5,2.77c2.27.66,4.99.99,8.15.99,2.99,0,5.58-.29,7.76-.87,2.18-.58,3.99-1.38,5.41-2.39,1.42-1.02,2.49-2.2,3.19-3.55s1.06-2.81,1.06-4.36c0-2.09-.59-3.76-1.77-5.03-1.18-1.27-2.72-2.29-4.63-3.07-1.91-.77-4.08-1.45-6.51-2.02-2.43-.58-4.93-1.16-7.48-1.77-2.56-.61-5.07-1.2-7.54-1.78-2.47-.58-4.67-1.51-6.58-2.78-1.91-1.27-3.46-2.9-4.63-4.91-1.18-2-1.77-4.53-1.77-7.57,0-2.42.48-4.71,1.42-6.85s2.39-4.02,4.33-5.63c1.94-1.61,4.38-2.88,7.33-3.81s6.42-1.4,10.41-1.4c4.37,0,8.07.52,11.1,1.57,3.03,1.04,5.5,2.45,7.4,4.23,1.9,1.75,3.25,3.82,4.05,6.22.72,2.11,1.06,4.34,1.04,6.68v.97h-7.94v-.55c0-1.63-.23-3.19-.69-4.65-.52-1.61-1.39-3-2.61-4.19-1.22-1.18-2.85-2.11-4.87-2.77-2.03-.66-4.52-.99-7.48-.99-2.7,0-5.02.28-6.96.84-1.94.56-3.54,1.33-4.81,2.3s-2.21,2.12-2.82,3.45c-.62,1.33-.93,2.75-.93,4.25,0,2.14.6,3.86,1.79,5.18,1.2,1.31,2.77,2.36,4.71,3.14,1.94.78,4.13,1.44,6.55,1.97,2.43.53,4.91,1.07,7.47,1.63,2.55.56,5.06,1.11,7.53,1.65,2.47.54,4.64,1.46,6.52,2.75,1.88,1.29,3.4,2.97,4.56,5.04,1.16,2.07,1.74,4.7,1.74,7.9,0,2.42-.5,4.7-1.51,6.83-1.01,2.13-2.55,4-4.64,5.63-2.08,1.62-4.71,2.9-7.89,3.83-3.18.93-6.95,1.4-11.32,1.4-4.66,0-8.62-.51-11.88-1.52-3.26-1.01-5.91-2.42-7.93-4.21-2.03-1.79-3.47-3.87-4.33-6.24-.75-2.09-1.12-4.31-1.12-6.68v-.93Z"/>
  </g>
  <path class="cls-2" d="m59.45,26.13h0s-9.33,2.49-9.33,2.49l4.8-8.8h0c2.21,1.5,3.82,3.74,4.53,6.31Zm-29.76,24.19c0,1.08.88,1.96,1.96,1.96s1.96-.88,1.96-1.96-.88-1.96-1.96-1.96c-.32,0-.62.08-.88.22l-9.77-6.39,9.46-15.11-.94-13.22c-.04-.51-.48-.89-.98-.85-.51.04-.89.48-.85.98l.89,12.62-10.1,16.12,11.24,7.35c0,.07-.02.15-.02.23Zm-13.67-4.83s.01-.1.01-.14c0-1.08-.88-1.96-1.96-1.96s-1.96.88-1.96,1.96.88,1.96,1.96,1.96c.35,0,.67-.1.96-.26l4.59,2.91-1.25,5.79c-.86.21-1.5.97-1.5,1.9,0,1.08.88,1.96,1.96,1.96s1.96-.88,1.96-1.96c0-.57-.25-1.08-.64-1.43l1.54-7.12-5.67-3.6Zm9.17-25.92c.43-.36.72-.89.72-1.5,0-1.08-.88-1.96-1.96-1.96s-1.96.88-1.96,1.96c0,.88.59,1.62,1.39,1.86l1.32,5.09-4.03,6.54c-.08,0-.15-.02-.23-.02-1.08,0-1.96.88-1.96,1.96s.88,1.96,1.96,1.96,1.96-.88,1.96-1.96c0-.32-.08-.61-.21-.87l4.5-7.3-1.49-5.74Zm10.16,40.39l-.03-.42-4.47-3.37-3.78-2.85c0-.05.01-.1.01-.15,0-1.08-.87-1.96-1.96-1.96s-1.95.88-1.95,1.96.87,1.96,1.95,1.96c.35,0,.67-.1.95-.26l2.94,2.22-2.14,2.88c-.12-.02-.25-.04-.39-.04-1.08,0-1.96.87-1.96,1.96s.88,1.95,1.96,1.95,1.96-.87,1.96-1.95c0-.27-.06-.52-.15-.75l2.18-2.94,3.05,2.3c.07,2.08.22,11.43-2.8,18.05h2.01c3.21-7.77,2.63-18.09,2.6-18.57ZM4.65,28.92c-1.08,0-1.96.88-1.96,1.96s.88,1.96,1.96,1.96,1.96-.88,1.96-1.96c0-.22-.05-.43-.11-.63l5.44-5.86-.99-2.05c.2-.31.32-.67.32-1.07,0-1.08-.88-1.96-1.96-1.96s-1.96.88-1.96,1.96.88,1.96,1.96,1.96c0,0,.01,0,.02,0l.4.84-4.58,4.93c-.16-.04-.32-.07-.5-.07Zm10.14,26.2c1.08,0,1.96-.88,1.96-1.96s-.88-1.96-1.96-1.96c-.33,0-.64.09-.91.23-6.04-4.52-7.41-11.73-7.65-13.41l11.25-13.71-3.13-5.8c.25-.33.4-.73.4-1.17,0-1.08-.88-1.96-1.96-1.96s-1.96.88-1.96,1.96.82,1.89,1.84,1.94l2.6,4.81-10.96,13.35.03.37c.04.41.92,9.54,8.5,15.13,0,.06-.02.13-.02.19,0,1.08.88,1.96,1.96,1.96Zm19.64-19.32c-1.08,0-1.96.88-1.96,1.96,0,.48.18.91.46,1.25l-1.68,3.43-3.43-2.08,3.7-6.88s.07.01.11.01c1.08,0,1.96-.88,1.96-1.96s-.88-1.96-1.96-1.96-1.96.88-1.96,1.96c0,.36.1.69.27.98l-4.58,8.51,6.64,4.02,2.62-5.36c.97-.11,1.73-.93,1.73-1.93,0-1.08-.88-1.96-1.96-1.96Zm-.6-18.49c1.08,0,1.96-.88,1.96-1.96s-.88-1.96-1.96-1.96c-.07,0-.14.01-.2.02l-3.12-4.15-.61.18c-.19.06-4.06,1.22-6.81,2.41-.31-.21-.69-.33-1.09-.33-1.08,0-1.96.88-1.96,1.96s.88,1.96,1.96,1.96,1.95-.87,1.96-1.95c2.02-.86,4.68-1.72,5.87-2.09l2.29,3.05c-.14.27-.23.58-.23.9,0,1.08.88,1.96,1.96,1.96Zm-1.82-12.54l-.59.15c-.41.1-10.18,2.61-16.27,7.97l-.53.46,5.3,10.81-7.14,11.06c-.05,0-.1-.02-.16-.02-1.08,0-1.96.88-1.96,1.96s.88,1.96,1.96,1.96,1.96-.88,1.96-1.96c0-.34-.1-.66-.25-.94l7.71-11.94-5.13-10.47c4.94-4.06,12.28-6.35,14.38-6.95l5.77,7.66-1.39,4.5c-.82.23-1.43.98-1.43,1.88,0,1.08.88,1.96,1.96,1.96s1.96-.88,1.96-1.96c0-.59-.27-1.11-.68-1.47l1.62-5.26-7.07-9.4Zm12.11,32.92h-6.84v8.3h6.84v-8.3Zm37.04,13.57c-1.8,2.68-4.06,5.16-6.44,7.34-2.6,2.38-5.89,3.67-7.84,6.73-1.81,2.84-2.64,6.2-3.32,9.46-.14.65-.34,1.25-.61,1.8-.08.17-.25.44-.45.73-.52.76-1.39,1.21-2.32,1.21h-21.38l.39-1.94.83-4.19c.96-4.8.21-8.03-.92-12.79l-1.34-6.3.52-.06c.45-.05.88-.12,1.3-.23,4.75-1.12,7.9-5.38,8.19-10.38.52-8.81-10.6-11.31-10.6-11.31l.24-.25s.28-.29.73-.82l.13-.16c.05-.06.1-.12.15-.19.04-.05.08-.09.12-.14,3.73-4.68,11.02-16.71-1.48-27.67-2.91-.35-6.76-.57-11.08.53C13.35,5.88,4.77,14.56,2.46,26.47c-2.32,11.9,2.01,24.58,10.51,30.84l14.12,10.24-3.26,10.98h-1.92l3.05-10.25-13.07-9.48C2.82,52.13-1.8,38.69.65,26.12,3.11,13.48,12.18,4.28,25.53.87,30.29-.34,34.46-.05,37.56.33c15.41,1.92,21.23,14.35,22.65,18.11.14.37.46.65.85.73l9.94,2.16c.8.17,1.48.65,1.92,1.34.44.69.57,1.52.39,2.32-.52,2.17-1.22,3.81-2.09,4.89.17.45.51,1.18,1.11,1.67.88.71,1.27,1.92.99,3.07l-.17.73,1.95.72c1.18.44,1.97,1.58,1.97,2.84v1.3c0,1.56.55,3.09,1.54,4.29l2.36,2.88c.91,1.1.99,2.66.18,3.87Zm-1.6-2.7l-2.37-2.88c-1.26-1.53-1.96-3.48-1.96-5.46v-1.3c0-.5-.31-.95-.78-1.12l-3.47-1.29.55-2.31c.11-.47-.03-.96-.36-1.23-1.42-1.16-1.85-3.04-1.87-3.12l-.11-.49.36-.35c.79-.79,1.47-2.32,1.97-4.44.07-.32.02-.64-.15-.91-.17-.28-.44-.46-.76-.53l-9.93-2.16c-1.02-.22-1.83-.92-2.19-1.88-1.23-3.27-6.01-13.51-18.2-16.4,10.57,11.21,3.48,23.22.17,27.62,5.5,1.48,9.44,6.47,9.44,12.35s-4.17,11.14-9.88,12.46l.87,4.07c1.18,5.01,1.93,8.51.93,13.57l-.76,3.83h17.96c1.3,0,2.47-.88,2.74-2.16,0,0,0-.02,0-.03.57-2.69,1.27-5.36,2.41-7.87,1.4-3.08,3.37-5.07,6.19-6.88,1.32-.85,2.53-1.83,3.66-2.91,2.05-1.96,4.03-4.14,5.61-6.5.35-.52.32-1.2-.07-1.67Z"/>
</svg>